<svg id="Raggruppa_801" data-name="Raggruppa 801" xmlns="http://www.w3.org/2000/svg" xmlns:xlink="http://www.w3.org/1999/xlink" width="16.476" height="13.481" viewBox="0 0 16.476 13.481">
  <defs>
    <clipPath id="clip-path">
      <rect id="Rettangolo_248" data-name="Rettangolo 248" width="16.476" height="13.481" fill="#50dbd9"/>
    </clipPath>
  </defs>
  <g id="Raggruppa_790" data-name="Raggruppa 790" transform="translate(0 0)" clip-path="url(#clip-path)">
    <path id="Tracciato_372" data-name="Tracciato 372" d="M9.561,13.481H8.814a.749.749,0,0,0-.117-.022,9.419,9.419,0,0,1-1.655-.22,9.857,9.857,0,0,1-4.929-2.629A6.824,6.824,0,0,1,.061,6.724,5.154,5.154,0,0,1,.416,3.885,5.937,5.937,0,0,1,3.289.91,8.251,8.251,0,0,1,6.177.061,9.861,9.861,0,0,1,8.829.123,10.264,10.264,0,0,1,12.255,1.3a8.637,8.637,0,0,1,3.311,3.112,6.164,6.164,0,0,1,.841,2.322c.024.17.045.34.068.511v.578a.86.86,0,0,0-.023.116,5.2,5.2,0,0,1-1.422,3.234,7.381,7.381,0,0,1-4.693,2.235c-.258.031-.517.05-.776.075M6.523,6.005a1.923,1.923,0,0,0-.494,1.651,2.976,2.976,0,0,0,.691,1.449,4.711,4.711,0,0,0,3.52,1.676,5.021,5.021,0,0,0,2.35-.467A3.788,3.788,0,0,0,14.417,8.67a2.81,2.81,0,0,0,.369-1.16,4.18,4.18,0,0,0-.248-1.642A5.99,5.99,0,0,0,12.493,3.1,8.1,8.1,0,0,0,8.214,1.407a7.529,7.529,0,0,0-2.451.152,5.524,5.524,0,0,0-3.02,1.725A4.133,4.133,0,0,0,1.714,6.718,5.333,5.333,0,0,0,3.108,9.571,7.427,7.427,0,0,0,5.57,11.347a8.2,8.2,0,0,0,3.809.751c.325-.014.65-.053.974-.081-.277-.05-.553-.069-.825-.113a6.683,6.683,0,0,1-3.053-1.3A4.989,4.989,0,0,1,4.66,8.086a2.923,2.923,0,0,1-.042-1.625A3.069,3.069,0,0,1,6.024,4.612.136.136,0,0,0,6.1,4.43Q5.81,3.4,5.535,2.367a.491.491,0,0,1,.272-.6.854.854,0,0,1,1.177.524c.138.56.3,1.113.454,1.669a.753.753,0,0,0,.031.08c.17-.024.328-.052.487-.067a4.633,4.633,0,0,1,2.83.626,3.525,3.525,0,0,1,1.7,2.035,1.985,1.985,0,0,1-.5,2.074,2.819,2.819,0,0,1-1.876.817,3.222,3.222,0,0,1-1.926-.446A2.555,2.555,0,0,1,6.942,7.535c-.085-.3-.165-.61-.249-.915-.054-.2-.11-.4-.17-.615m1.282-.764a.507.507,0,0,0,0,.069c.192.707.38,1.415.584,2.119a1.113,1.113,0,0,0,.228.416,1.522,1.522,0,0,0,2.16.059,1.06,1.06,0,0,0,.282-1.116,1.8,1.8,0,0,0-.393-.709,2.7,2.7,0,0,0-2.117-.916,6.751,6.751,0,0,0-.744.078" transform="translate(0 0)" fill="#50dbd9"/>
  </g>
</svg>
