<svg xmlns="http://www.w3.org/2000/svg" width="13.73" height="15.933" viewBox="0 0 13.73 15.933">
  <path id="copy" d="M10.136.375V1.833H1.458V11.969H0V1.833A1.407,1.407,0,0,1,.424.8,1.405,1.405,0,0,1,1.458.375Zm2.17,2.915a1.367,1.367,0,0,1,1,.424,1.37,1.37,0,0,1,.424,1V14.851a1.407,1.407,0,0,1-.424,1.034,1.366,1.366,0,0,1-1,.424H4.339a1.447,1.447,0,0,1-1.458-1.458V4.714a1.367,1.367,0,0,1,.424-1A1.409,1.409,0,0,1,4.339,3.29h7.967Zm0,11.56V4.714H4.339V14.851h7.967Z" transform="translate(0 -0.375)" fill="#50dbd9"/>
</svg>
