<svg xmlns="http://www.w3.org/2000/svg" width="89.479" height="96.378" viewBox="0 0 89.479 96.378">
  <g id="Raggruppa_809" data-name="Raggruppa 809" transform="translate(-903.346 -307.317)">
    <g id="Raggruppa_789" data-name="Raggruppa 789" transform="translate(903.831 308.638)">
      <path id="Sottrazione_2" data-name="Sottrazione 2" d="M61.805,60.235H51.381V40.376l1.034-26.559L34.626,60.234H27.138L9.391,13.858l1.034,26.518V60.234H0V13.088L16.054,6.6,30.945,46.168,48.278,0H61.805V60.234Z" transform="translate(27.188 34.822)" fill="#50dbd9"/>
      <path id="Sottrazione_1" data-name="Sottrazione 1" d="M59.774,54.819h0L50.412,30.43l-.031.012-.068-.182-.027-.073-2.231.923-.023.01-.015.006c-1.663.688-3.383,1.4-5.064,2.1l-1.268.527-.944.392-2.631,1.01.028.072L5.085,48.959a4.659,4.659,0,0,1-1.754.423,2.151,2.151,0,0,1-.982-.221l-.035-.017A3.978,3.978,0,0,1,.727,47.163c-.758-1.622-.915-2.719-.509-3.557l.039-.076c.381-.712,1.181-1.266,2.761-1.914,10.73-4.4,21.616-8.93,32.144-13.31,3.547-1.475,7.211-3,10.816-4.5l.067-.028,1.608-.617L38.761,0A65.127,65.127,0,0,1,51.844,12.228l.008.01A44.139,44.139,0,0,1,59.634,27.1,50.838,50.838,0,0,1,61.56,43.741c-.1,2.483-.436,5-.758,7.432-.087.657-.177,1.336-.261,2.009a2.434,2.434,0,0,1-.766,1.636Z" transform="translate(0 0)" fill="#50dbd9" stroke="rgba(0,0,0,0)" stroke-miterlimit="10" stroke-width="1"/>
    </g>
  </g>
</svg>