<svg xmlns="http://www.w3.org/2000/svg" width="34.095" height="37.212" viewBox="0 0 34.095 37.212">
  <g id="Raggruppa_828" data-name="Raggruppa 828" transform="translate(0.494 1.321)">
    <path id="Sottrazione_2" data-name="Sottrazione 2" d="M23.336,22.743H19.4v-7.5l.39-10.028L13.074,22.742H10.246l-6.7-17.51.391,10.012v7.5H0V4.942L6.061,2.493l5.622,14.939L18.228,0h5.107V22.742Z" transform="translate(10.265 13.148)" fill="#fff"/>
    <path id="Sottrazione_1" data-name="Sottrazione 1" d="M22.569,20.7h0L19.034,11.49l-.012,0L19,11.425l-.01-.028-.843.348-.009,0-.006,0-1.912.792-.479.2-.357.148-.993.381.01.027L1.92,18.485a1.759,1.759,0,0,1-.662.16.812.812,0,0,1-.371-.083l-.013-.006a1.5,1.5,0,0,1-.6-.748,1.581,1.581,0,0,1-.192-1.343L.1,16.435a1.9,1.9,0,0,1,1.043-.723c4.051-1.662,8.162-3.372,12.137-5.025l4.084-1.7.025-.011.607-.233L14.635,0a24.59,24.59,0,0,1,4.94,4.617l0,0a16.666,16.666,0,0,1,2.938,5.61,19.2,19.2,0,0,1,.727,6.285c-.039.938-.165,1.887-.286,2.806-.033.248-.067.5-.1.759a.919.919,0,0,1-.289.618Z" transform="translate(0 0)" fill="#fff" stroke="rgba(0,0,0,0)" stroke-miterlimit="10" stroke-width="1"/>
  </g>
</svg>
