<svg xmlns="http://www.w3.org/2000/svg" width="32" height="31.915" viewBox="0 0 32 31.915">
  <path id="blocks-group-line" d="M33.53,18.76,26.6,15.57V6.43a1,1,0,0,0-.6-.9L18.5,2.08a1,1,0,0,0-.84,0l-7.5,3.45a1,1,0,0,0-.58.91v9.14l-6.9,3.18a1,1,0,0,0-.58.91v9.78a1,1,0,0,0,.58.91l7.5,3.45a1,1,0,0,0,.84,0l7.08-3.26,7.08,3.26a1,1,0,0,0,.84,0l7.5-3.45a1,1,0,0,0,.58-.91V19.67a1,1,0,0,0-.57-.91Zm-2.81.91L25.61,22,20.5,19.67l5.11-2.35ZM18.1,4.08l5.11,2.35L18.1,8.78,13,6.43ZM10.6,17.31l5.11,2.35L10.6,22,5.49,19.67ZM17.1,28.8l-6.5,3-6.5-3V21.23L10.18,24A1,1,0,0,0,11,24l6.08-2.8ZM11.6,15.57V8l6.08,2.8a1,1,0,0,0,.84,0L24.6,8v7.58l-6.5,3ZM32.11,28.81l-6.5,3-6.51-3V21.22L25.19,24A1,1,0,0,0,26,24l6.08-2.8Z" transform="translate(-2.1 -1.988)" fill="#fff"/>
</svg>
