<svg xmlns="http://www.w3.org/2000/svg" width="22.809" height="25.132" viewBox="0 0 22.809 25.132">
  <path id="blocks-group-line" d="M32.388,21.8V7.941a1.34,1.34,0,0,0-.8-1.206L21.534,2.111a1.34,1.34,0,0,0-1.126,0L10.357,6.735A1.34,1.34,0,0,0,9.58,7.954V20.2a2.885,2.885,0,0,0,.48,1.6s8.756,4.341,9.833,5.02a2.22,2.22,0,0,0,2.2,0c.738-.32,10.295-5.02,10.295-5.02ZM21,4.792l6.848,3.149L21,11.09,14.163,7.941Zm-8.711,15.4V10.045c8.5,3.917,8.916,3.917,9.273,3.752l8.148-3.752V20.2L21,24.223Z" transform="translate(-9.58 -1.988)" fill="#fff"/>
</svg>
