<svg xmlns="http://www.w3.org/2000/svg" width="32" height="32" viewBox="0 0 32 32">
  <defs>
    <style>
      .cls-1 {
        fill: #25303e;
      }

      .cls-2 {
        fill: #50dbd9;
      }

      .cls-3 {
        fill: rgba(0,0,0,0);
      }
    </style>
  </defs>
  <g id="Raggruppa_857" data-name="Raggruppa 857" transform="translate(-0.162)">
    <rect id="Rettangolo_246" data-name="Rettangolo 246" class="cls-2" width="32" height="32" rx="8" transform="translate(0.161)"/>
    <g id="Raggruppa_789" data-name="Raggruppa 789" transform="translate(3.954 4.086)">
      <path id="Sottrazione_2" data-name="Sottrazione 2" class="cls-1" d="M15.53,15.135H12.91v-4.99l.26-6.674L8.7,15.135H6.819L2.36,3.482l.26,6.663v4.99H0V3.289l4.034-1.63L7.775,11.6,12.131,0h3.4V15.135Z" transform="translate(6.957 9.082)"/>
      <path id="Sottrazione_1" data-name="Sottrazione 1" class="cls-1" d="M15.019,13.774h0L12.667,7.646l-.008,0L12.642,7.6l-.007-.018-.561.232-.006,0,0,0-1.273.527-.319.132-.237.1-.661.254.007.018L1.278,12.3a1.171,1.171,0,0,1-.441.106.541.541,0,0,1-.247-.056l-.009,0a1,1,0,0,1-.4-.5,1.052,1.052,0,0,1-.128-.894l.01-.019a1.265,1.265,0,0,1,.694-.481c2.7-1.106,5.431-2.244,8.077-3.344l2.718-1.13.017-.007.4-.155L9.739,0a16.364,16.364,0,0,1,3.287,3.073l0,0a11.091,11.091,0,0,1,1.955,3.733,12.774,12.774,0,0,1,.484,4.183c-.026.624-.109,1.256-.19,1.867-.022.165-.044.336-.066.5a.611.611,0,0,1-.192.411Z" transform="translate(0.126 0.332)"/>
      <path id="Sottrazione_1_-_Contorno" data-name="Sottrazione 1 - Contorno" class="cls-3" d="M14.59,12.994l-.063-.165L12.22,6.819l-.008,0-.023-.061-.441.182-.014.006-1.268.525-.559.232-.544.209.006.015-.113.047-8.3,3.451a1.29,1.29,0,0,1-.489.116.663.663,0,0,1-.3-.069L.149,11.47a1.112,1.112,0,0,1-.455-.556,1.156,1.156,0,0,1-.127-1l.012-.024a1.365,1.365,0,0,1,.757-.538c2.7-1.106,5.43-2.243,8.075-3.344l2.719-1.13.02-.008.287-.11L9.1-1.321l.333.228a16.5,16.5,0,0,1,3.315,3.1l0,0A11.215,11.215,0,0,1,14.73,5.783a12.9,12.9,0,0,1,.489,4.224c-.026.63-.11,1.265-.191,1.879-.022.165-.044.335-.066.5a.731.731,0,0,1-.237.492Zm-2.225-6.5,2.312,6.023a.755.755,0,0,0,.036-.159c.021-.17.044-.341.066-.506.081-.608.164-1.238.189-1.856a12.649,12.649,0,0,0-.479-4.141,10.966,10.966,0,0,0-1.933-3.691l0,0A16.4,16.4,0,0,0,9.631-.646L11.761,4.9l-.535.206L8.509,6.239C5.862,7.34,3.127,8.478.431,9.584c-.367.15-.549.273-.63.423l-.009.017c-.083.173-.043.415.129.785a.892.892,0,0,0,.342.439l.007,0a.419.419,0,0,0,.192.043,1.052,1.052,0,0,0,.392-.1l8.192-3.4-.008-.021.777-.3.554-.23,1.269-.525.014-.006.561-.232.12-.05.025.067Z" transform="translate(0.5 1.321)"/>
    </g>
  </g>
</svg>
