<svg xmlns="http://www.w3.org/2000/svg" width="172.351" height="33.127" viewBox="0 0 172.351 33.127">
  <defs>
    <style>
      .cls-1 {
        fill: #25303e;
      }

      .cls-2 {
        fill: #fff;
      }

      .cls-3 {
        fill: #50dbd9;
      }

      .cls-4 {
        fill: rgba(0,0,0,0);
      }
    </style>
  </defs>
  <g id="Raggruppa_852" data-name="Raggruppa 852" transform="translate(-887.757 -291.055)">
    <path id="Tracciato_396" data-name="Tracciato 396" class="cls-2" d="M11.715-77.719l4.818,13.6,4.792-13.6H26.4v18.757H22.523V-64.09l.386-8.85L17.847-58.963H15.193l-5.05-13.965.386,8.837v5.127H6.665V-77.719ZM33.46-58.963H29.725V-72.9H33.46ZM29.506-76.508a1.833,1.833,0,0,1,.56-1.378,2.105,2.105,0,0,1,1.527-.541,2.11,2.11,0,0,1,1.52.541,1.823,1.823,0,0,1,.567,1.378,1.828,1.828,0,0,1-.573,1.391,2.115,2.115,0,0,1-1.514.541,2.115,2.115,0,0,1-1.514-.541A1.828,1.828,0,0,1,29.506-76.508ZM39.953-72.9l.116,1.61a4.867,4.867,0,0,1,4.006-1.868,4.044,4.044,0,0,1,3.3,1.3,6.071,6.071,0,0,1,1.108,3.89v9H44.758v-8.915a2.415,2.415,0,0,0-.515-1.72,2.307,2.307,0,0,0-1.713-.535,2.561,2.561,0,0,0-2.357,1.34v9.829H36.449V-72.9ZM55.232-58.963H51.5V-72.9h3.736ZM51.277-76.508a1.833,1.833,0,0,1,.56-1.378,2.105,2.105,0,0,1,1.527-.541,2.11,2.11,0,0,1,1.52.541,1.823,1.823,0,0,1,.567,1.378,1.828,1.828,0,0,1-.573,1.391,2.115,2.115,0,0,1-1.514.541,2.115,2.115,0,0,1-1.514-.541A1.828,1.828,0,0,1,51.277-76.508ZM61.725-72.9l.116,1.61a4.867,4.867,0,0,1,4.006-1.868,4.044,4.044,0,0,1,3.3,1.3,6.071,6.071,0,0,1,1.108,3.89v9H66.53v-8.915a2.415,2.415,0,0,0-.515-1.72,2.307,2.307,0,0,0-1.713-.535,2.561,2.561,0,0,0-2.357,1.34v9.829H58.221V-72.9Zm10.808,6.866A8.169,8.169,0,0,1,74.059-71.2a4.946,4.946,0,0,1,4.116-1.958,4.338,4.338,0,0,1,3.568,1.572L81.9-72.9h3.375v13.475a5.957,5.957,0,0,1-.831,3.182A5.336,5.336,0,0,1,82.1-54.183a8.22,8.22,0,0,1-3.53.709,7.643,7.643,0,0,1-2.989-.612,5.3,5.3,0,0,1-2.2-1.578l1.649-2.267a4.361,4.361,0,0,0,3.375,1.559,3.192,3.192,0,0,0,2.306-.792,2.972,2.972,0,0,0,.824-2.248v-.747A4.306,4.306,0,0,1,78.15-58.7a4.934,4.934,0,0,1-4.064-1.965,8.167,8.167,0,0,1-1.552-5.211Zm3.723.271a5.073,5.073,0,0,0,.76,2.969A2.419,2.419,0,0,0,79.1-61.719a2.586,2.586,0,0,0,2.435-1.275v-5.862a2.58,2.58,0,0,0-2.409-1.275,2.434,2.434,0,0,0-2.106,1.1A5.717,5.717,0,0,0,76.256-65.765ZM102.5-74.589H96.752v15.626H92.887V-74.589H87.219v-3.13H102.5Zm-1.3,8.528a8.267,8.267,0,0,1,.8-3.7,5.847,5.847,0,0,1,2.3-2.512,6.709,6.709,0,0,1,3.485-.889,6.347,6.347,0,0,1,4.605,1.726,6.928,6.928,0,0,1,1.99,4.689l.026.953a7.285,7.285,0,0,1-1.791,5.147,6.224,6.224,0,0,1-4.805,1.939,6.255,6.255,0,0,1-4.812-1.932,7.413,7.413,0,0,1-1.8-5.256Zm3.723.271a5.2,5.2,0,0,0,.747,3.034,2.466,2.466,0,0,0,2.138,1.05,2.472,2.472,0,0,0,2.113-1.037,5.686,5.686,0,0,0,.76-3.317,5.144,5.144,0,0,0-.76-3.014,2.472,2.472,0,0,0-2.138-1.069,2.431,2.431,0,0,0-2.113,1.063A5.781,5.781,0,0,0,104.919-65.79Zm11.195-.271a8.267,8.267,0,0,1,.8-3.7,5.847,5.847,0,0,1,2.3-2.512,6.709,6.709,0,0,1,3.485-.889,6.347,6.347,0,0,1,4.605,1.726,6.928,6.928,0,0,1,1.99,4.689l.026.953a7.285,7.285,0,0,1-1.791,5.147,6.224,6.224,0,0,1-4.805,1.939,6.255,6.255,0,0,1-4.812-1.932,7.413,7.413,0,0,1-1.8-5.256Zm3.723.271a5.2,5.2,0,0,0,.747,3.034,2.466,2.466,0,0,0,2.138,1.05,2.472,2.472,0,0,0,2.113-1.037,5.686,5.686,0,0,0,.76-3.317,5.144,5.144,0,0,0-.76-3.014,2.472,2.472,0,0,0-2.138-1.069,2.432,2.432,0,0,0-2.113,1.063A5.781,5.781,0,0,0,119.837-65.79Zm15.7,6.828H131.8V-78.75h3.736Z" transform="translate(924.567 377.657)"/>
    <g id="Raggruppa_796" data-name="Raggruppa 796" transform="translate(887.596 291.055)">
      <rect id="Rettangolo_246" data-name="Rettangolo 246" class="cls-3" width="32" height="32" rx="8" transform="translate(0.161)"/>
      <g id="Raggruppa_789" data-name="Raggruppa 789" transform="translate(3.954 4.086)">
        <path id="Sottrazione_2" data-name="Sottrazione 2" class="cls-1" d="M15.53,15.135H12.91v-4.99l.26-6.674L8.7,15.135H6.819L2.36,3.482l.26,6.663v4.99H0V3.289l4.034-1.63L7.775,11.6,12.131,0h3.4V15.135Z" transform="translate(6.957 9.082)"/>
        <path id="Sottrazione_1" data-name="Sottrazione 1" class="cls-1" d="M15.019,13.774h0L12.667,7.646l-.008,0L12.642,7.6l-.007-.018-.561.232-.006,0,0,0-1.273.527-.319.132-.237.1-.661.254.007.018L1.278,12.3a1.171,1.171,0,0,1-.441.106.541.541,0,0,1-.247-.056l-.009,0a1,1,0,0,1-.4-.5,1.052,1.052,0,0,1-.128-.894l.01-.019a1.265,1.265,0,0,1,.694-.481c2.7-1.106,5.431-2.244,8.077-3.344l2.718-1.13.017-.007.4-.155L9.739,0a16.364,16.364,0,0,1,3.287,3.073l0,0a11.091,11.091,0,0,1,1.955,3.733,12.774,12.774,0,0,1,.484,4.183c-.026.624-.109,1.256-.19,1.867-.022.165-.044.336-.066.5a.611.611,0,0,1-.192.411Z" transform="translate(0.126 0.332)"/>
        <path id="Sottrazione_1_-_Contorno" data-name="Sottrazione 1 - Contorno" class="cls-4" d="M14.59,12.994l-.063-.165L12.22,6.819l-.008,0-.023-.061-.441.182-.014.006-1.268.525-.559.232-.544.209.006.015-.113.047-8.3,3.451a1.29,1.29,0,0,1-.489.116.663.663,0,0,1-.3-.069L.149,11.47a1.112,1.112,0,0,1-.455-.556,1.156,1.156,0,0,1-.127-1l.012-.024a1.365,1.365,0,0,1,.757-.538c2.7-1.106,5.43-2.243,8.075-3.344l2.719-1.13.02-.008.287-.11L9.1-1.321l.333.228a16.5,16.5,0,0,1,3.315,3.1l0,0A11.215,11.215,0,0,1,14.73,5.783a12.9,12.9,0,0,1,.489,4.224c-.026.63-.11,1.265-.191,1.879-.022.165-.044.335-.066.5a.731.731,0,0,1-.237.492Zm-2.225-6.5,2.312,6.023a.755.755,0,0,0,.036-.159c.021-.17.044-.341.066-.506.081-.608.164-1.238.189-1.856a12.649,12.649,0,0,0-.479-4.141,10.966,10.966,0,0,0-1.933-3.691l0,0A16.4,16.4,0,0,0,9.631-.646L11.761,4.9l-.535.206L8.509,6.239C5.862,7.34,3.127,8.478.431,9.584c-.367.15-.549.273-.63.423l-.009.017c-.083.173-.043.415.129.785a.892.892,0,0,0,.342.439l.007,0a.419.419,0,0,0,.192.043,1.052,1.052,0,0,0,.392-.1l8.192-3.4-.008-.021.777-.3.554-.23,1.269-.525.014-.006.561-.232.12-.05.025.067Z" transform="translate(0.5 1.321)"/>
      </g>
    </g>
  </g>
</svg>
