<svg xmlns="http://www.w3.org/2000/svg" width="38" height="38" viewBox="0 0 38 38">
  <g id="user-avatar" transform="translate(-2.25 -2.25)">
    <path id="Tracciato_384" data-name="Tracciato 384" d="M21.25,2.25a19,19,0,1,0,19,19A19,19,0,0,0,21.25,2.25ZM13.107,35.337V32.622a4.371,4.371,0,0,1,4.071-4.587h8.143a4.371,4.371,0,0,1,4.071,4.6v2.714a16.177,16.177,0,0,1-16.286,0Zm19-1.982v-.828a7.07,7.07,0,0,0-6.786-7.206H17.179a7.057,7.057,0,0,0-6.786,7.207v.8a16.286,16.286,0,1,1,21.714,0Z" transform="translate(0 0)" fill="#fff"/>
    <path id="Tracciato_385" data-name="Tracciato 385" d="M19.161,7.875a6.786,6.786,0,1,0,6.786,6.786,6.786,6.786,0,0,0-6.786-6.786Zm0,10.857a4.071,4.071,0,1,1,4.071-4.071A4.071,4.071,0,0,1,19.161,18.732Z" transform="translate(2.089 1.161)" fill="#fff"/>
  </g>
</svg>
