<svg xmlns="http://www.w3.org/2000/svg" xmlns:xlink="http://www.w3.org/1999/xlink" width="1920" height="1080" viewBox="0 0 1920 1080">
  <defs>
    <style>
      .cls-1 {
        fill: url(#linear-gradient);
      }

      .cls-2 {
        clip-path: url(#clip-Login_2);
      }

      .cls-3 {
        opacity: 0.031;
      }

      .cls-4 {
        fill: rgba(0,0,0,0);
      }

      .cls-5 {
        fill: #25303e;
      }
    </style>
    <linearGradient id="linear-gradient" x1="0.5" x2="0.5" y2="1" gradientUnits="objectBoundingBox">
      <stop offset="0" stop-color="#fff" stop-opacity="0"/>
      <stop offset="0.493" stop-color="#fff"/>
      <stop offset="1" stop-color="#fff" stop-opacity="0"/>
    </linearGradient>
    <clipPath id="clip-Login_2">
      <rect width="1920" height="1080"/>
    </clipPath>
  </defs>
  <g id="Login_2" data-name="Login – 2" class="cls-2">
    <rect class="cls-5" width="1920" height="1080"/>
    <g id="Raggruppa_792" data-name="Raggruppa 792" class="cls-3" transform="translate(-235.771 -716.347)">
      <path id="Sottrazione_2" data-name="Sottrazione 2" class="cls-1" d="M1276.566,1244.124h-.02l-215.294-.019V833.953L1082.6,285.381,715.184,1244.1H560.524L193.964,286.238l21.367,547.715V1244.1H0V270.323L331.587,136.353,639.149,953.579,997.17,0h279.4V1244.124Z" transform="translate(561.565 719.235)"/>
      <path id="Sottrazione_1" data-name="Sottrazione 1" class="cls-1" d="M1234.607,1132.263l-.01-.025L1041.244,628.529l-.632.243c-.467-1.222-.932-2.468-1.41-3.75l-.565-1.515q-23.172,9.591-46.09,19.064l-.484.2-.313.13c-34.352,14.2-69.873,28.893-104.605,43.325l-26.2,10.884-19.5,8.1L787.1,726.07l.57,1.486q-341.318,141.82-682.646,283.667c-14.118,5.872-25.967,8.727-36.223,8.727a44.436,44.436,0,0,1-20.283-4.563l-.717-.35c-12.365-6.461-22.785-19.461-32.794-40.914C-.639,940.614-3.883,917.957,4.49,900.662l.8-1.575c7.866-14.7,24.389-26.149,57.031-39.531,221.617-90.909,446.469-184.447,663.918-274.9,73.255-30.474,148.935-61.957,223.391-92.881l1.393-.584,33.221-12.75L800.591,0c151.134,103.623,258.492,237.631,270.236,252.57l.166.211c73.607,92.816,127.685,196.061,160.732,306.868,31.462,105.493,44.844,221.169,39.776,343.814-2.121,51.292-9,103.251-15.651,153.5-1.8,13.57-3.655,27.6-5.4,41.5-1.917,15.288-7.24,26.656-15.822,33.788Z" transform="translate(0 0)"/>
      <path id="Sottrazione_1_-_Contorno" data-name="Sottrazione 1 - Contorno" class="cls-4" d="M1234.39,1133.093l-.26-.675L1040.956,629.175l-.633.243-.179-.468c-.461-1.206-.912-2.415-1.39-3.7l-.405-1.088c-15.513,6.421-30.812,12.747-45.611,18.866l-.9.371c-34.319,14.191-69.806,28.865-104.5,43.283l-45.71,18.993-53.88,20.679.566,1.474-.449.187C555.9,824.4,323.438,921,105.216,1011.685c-14.18,5.9-26.092,8.766-36.415,8.766a44.926,44.926,0,0,1-20.506-4.615l-.726-.354c-12.467-6.515-22.958-19.589-33.016-41.146C-1.162,940.676-4.4,917.887,4.04,900.444l0-.01.809-1.583c7.927-14.809,24.522-26.327,57.282-39.758C283.714,768.2,508.528,674.679,725.94,584.236l.112-.047c73.08-30.4,148.648-61.838,223.391-92.881l1.405-.589L983.6,478.149,799.548-1.321l1.325.909c151.194,103.664,258.6,237.728,270.346,252.673l.166.211c73.646,92.864,127.753,196.166,160.818,307.034,31.478,105.546,44.867,221.277,39.8,343.977-2.122,51.313-9,103.281-15.654,153.539v.006c-1.8,13.566-3.654,27.594-5.4,41.492-1.933,15.418-7.316,26.895-16,34.11Zm-192.859-505.21.179.467,193.111,503.077c8.18-7.072,13.27-18.18,15.132-33.03,1.747-13.9,3.6-27.932,5.4-41.5v-.006c6.65-50.236,13.527-102.182,15.646-153.449,5.066-122.59-8.31-238.21-39.756-343.65-33.029-110.745-87.077-213.934-160.645-306.7l-.167-.212c-11.705-14.89-118.427-148.1-268.8-251.556l183.26,477.4-33.685,12.928-1.382.579c-74.744,31.044-150.312,62.48-223.392,92.882l-.112.046C508.911,675.6,284.1,769.125,62.516,860.019c-32.523,13.333-48.973,24.721-56.78,39.3l-.8,1.561c-8.3,17.147-5.054,39.669,10.522,73.029,9.957,21.342,20.3,34.268,32.563,40.678l.714.348a43.952,43.952,0,0,0,20.064,4.512c10.189,0,21.974-2.842,36.031-8.689,218.075-90.623,450.391-187.163,682.2-283.48l-.575-1.5.467-.179,54.343-20.857,45.688-18.983c34.7-14.418,70.186-29.092,104.505-43.283l.9-.371c14.952-6.182,30.412-12.575,46.09-19.064l.479-.2.767,2.058c.415,1.113.811,2.172,1.209,3.221Z" transform="translate(0 0)"/>
    </g>
  </g>
</svg>
