<svg xmlns="http://www.w3.org/2000/svg" xmlns:xlink="http://www.w3.org/1999/xlink" width="156.916" height="157.679" viewBox="0 0 156.916 157.679">
  <defs>
    <style>
      .cls-1 {
        fill: none;
      }

      .cls-2 {
        fill: #25303e;
      }

      .cls-3 {
        clip-path: url(#clip-path);
      }

      .cls-4 {
        fill: #0fb5bc;
      }

      .cls-5 {
        clip-path: url(#clip-path-2);
      }

      .cls-6 {
        fill: #12b5b8;
      }

      .cls-7 {
        fill: #09bab9;
      }

      .cls-8 {
        fill: #173749;
      }

      .cls-9 {
        fill: #05bbba;
      }

      .cls-10 {
        fill: #fff;
      }

      .cls-11 {
        clip-path: url(#clip-path-3);
      }
    </style>
    <clipPath id="clip-path">
      <rect id="Rettangolo_243" data-name="Rettangolo 243" class="cls-1" width="74.072" height="71.428" transform="translate(0 0)"/>
    </clipPath>
    <clipPath id="clip-path-2">
      <rect id="Rettangolo_244" data-name="Rettangolo 244" class="cls-1" width="69.536" height="126.842"/>
    </clipPath>
    <clipPath id="clip-path-3">
      <rect id="Rettangolo_242" data-name="Rettangolo 242" class="cls-2" width="28.87" height="36.656"/>
    </clipPath>
  </defs>
  <g id="Raggruppa_790" data-name="Raggruppa 790" transform="translate(-497.954 -452.525)">
    <g id="Raggruppa_783" data-name="Raggruppa 783" transform="translate(559.339 455.11) rotate(-2)">
      <g id="Raggruppa_782" data-name="Raggruppa 782" class="cls-3" transform="translate(0 0)">
        <path id="Tracciato_354" data-name="Tracciato 354" class="cls-4" d="M72.33,63.136,34.093,30.554c-2.45-2.088-4.895-4.182-7.394-6.318.44-.477.778-.863,1.134-1.229A225.673,225.673,0,0,1,48.4,4.665c1.308-1.05,1.651-2.2,1.044-3.364C48.832.115,47.7-.325,46.1.252c-3.648,1.316-7.354,2.525-10.871,4.139C22.267,10.333,12.245,19.371,6.235,32.51A79.756,79.756,0,0,0,.1,54.02c-.359,1.753.222,2.836,1.518,3.288S4,57.228,4.871,55.7c.531-.931,3.91-6.7,4.073-6.953q4.211-6.6,8.526-13.135c.968-1.464,2.074-2.836,3.184-4.343.563.464,1.028.834,1.479,1.218q21.678,18.478,43.33,36.988c2.875,2.473,4.59,2.924,7.33-.584,1.791-2.3,1.758-3.863-.464-5.756M3.594,51.981C7.431,27.607,20.716,11.729,44.557,4A146.169,146.169,0,0,0,3.594,51.981M69.079,68.664,22.5,28.971l2.2-2.577L71.279,66.088l-2.2,2.576" transform="translate(0 0.001)"/>
      </g>
    </g>
    <g id="Raggruppa_785" data-name="Raggruppa 785" transform="translate(497.954 477.885)">
      <g id="Raggruppa_784" data-name="Raggruppa 784" class="cls-5" transform="translate(0 0)">
        <path id="Tracciato_355" data-name="Tracciato 355" class="cls-6" d="M52.853,59.8,63.2,81.659c9.384,25.051-4.316,35.269-5.209,35.858-2.478,1.635-5.052,3.122-7.8,4.8-.306-3.361-.6-6.462-.868-9.564-.931-10.607-1.666-21.235-2.873-31.811-.548-4.8-1.982-9.509-3.088-14.242Q38.5,45.872,33.592,25.058a2.616,2.616,0,0,1,.065-1.639c2.854-5.626,5.763-11.224,8.664-16.827A4.717,4.717,0,0,1,42.8,6c1.052,3.115,1.906,6.111,3.077,8.979,1.31,3.209,1.469,6.545,1.642,9.908.32,6.209.664,12.414.949,18.624Zm-1.9-26.847c.037-.632.079-1.27.133-1.908-.127-2.532-.258-5.063-.41-7.594a25.942,25.942,0,0,0-.6-5.862c-1.611-5.346-3.5-10.611-5.281-15.9C44.229.008,43.6-.308,41.981.26,35.345,2.585,28.7,4.893,22.087,7.277a4.342,4.342,0,0,0-1.98,1.509c-3.235,4.674-6.4,9.394-9.55,14.129a6.388,6.388,0,0,0-.915,2.228Q4.821,49.451.094,73.778a6.086,6.086,0,0,0,.252,3.068q7.314,20.4,14.778,40.74a3.263,3.263,0,0,0,1.584,1.667c5.549,2.455,11.134,4.83,16.725,7.187a5.468,5.468,0,0,0,2.091.4c4.193-.007,8.386-.045,12.577-.146a4.669,4.669,0,0,0,2.155-.616c3.075-1.8,6.112-3.669,9.14-5.549a22.965,22.965,0,0,0,2.005-1.578c9.109-7.57,10.482-23.548,4.555-39.407a1.494,1.494,0,0,1-.271-.31C62.1,71.67,58.5,64.11,54.966,56.52ZM42.7,78.02,23.167,75.9l8.444-43.664.3,0L42.7,78.02m-4.955,3.015q-4.027,1.674-8.055,3.349c-1.82.755-3.633,1.532-5.475,2.231a1.925,1.925,0,0,1-1.452.039c-4.656-2.877-9.274-5.813-13.9-8.736l.06-.306,28.769,3.141c.019.094.037.189.056.283m-15.1-70.181a2.166,2.166,0,0,1,1.026-.717q7.554-2.678,15.126-5.3a7.627,7.627,0,0,1,.82-.16C39.049,5.777,38.582,6.69,38.112,7.6c-2.319,4.492-4.617,9-6.985,13.461a2.215,2.215,0,0,1-1.4,1.143c-4.947.265-9.9.418-15.2.615,2.829-4.181,5.456-8.085,8.119-11.966M3.884,71.141q4.294-21.83,8.56-43.666c.214-1.111.649-1.369,1.684-1.4,4.575-.129,9.148-.341,13.721-.517.516-.019,1.033,0,1.741,0-3.237,16.729-6.443,33.3-9.668,49.979L3.418,73.747c.169-.948.3-1.779.466-2.606m23.128,49.028c-2.655-1.134-5.322-2.24-7.953-3.428a2.522,2.522,0,0,1-1.278-1.2q-6.5-17.832-12.9-35.7a2.28,2.28,0,0,1-.006-.57l10.81,6.8a14.794,14.794,0,0,0,1.838,1.141c3.816,1.683,5.9,4.836,7.539,8.485a95.866,95.866,0,0,1,7.533,25.675c.047.321.061.647.115,1.228l-5.7-2.437m9.18,3.287A95.083,95.083,0,0,0,25.539,89.621l17.844-7.38c1.216,13.8,2.418,27.431,3.632,41.215Z" transform="translate(0 0)"/>
      </g>
    </g>
    <path id="Linea_7" data-name="Linea 7" class="cls-7" d="M0,18.813a1.991,1.991,0,0,1-.974-.255,2,2,0,0,1-.77-2.722L7.652-.976a2,2,0,0,1,2.722-.77,2,2,0,0,1,.77,2.722l-9.4,16.813A2,2,0,0,1,0,18.813Z" transform="matrix(0.946, 0.326, -0.326, 0.946, 589.246, 515.929)"/>
    <path id="Linea_9" data-name="Linea 9" class="cls-7" d="M1.79,10.959A2,2,0,0,1-.169,9.351L-1.961.392A2,2,0,0,1-.392-1.961,2,2,0,0,1,1.961-.392L3.753,8.566A2,2,0,0,1,1.79,10.959Z" transform="matrix(0.946, 0.326, -0.326, 0.946, 579.942, 516.878)"/>
    <g id="Raggruppa_787" data-name="Raggruppa 787" transform="translate(617.984 574.744)">
      <g id="Raggruppa_786" data-name="Raggruppa 786" transform="translate(0 0)">
        <ellipse id="Ellisse_7" data-name="Ellisse 7" class="cls-8" cx="18.365" cy="6.271" rx="18.365" ry="6.271" transform="translate(0 8.063)"/>
        <path id="Ellisse_7_-_Contorno" data-name="Ellisse 7 - Contorno" class="cls-9" d="M18.365,3A41.356,41.356,0,0,0,7.394,4.349,11.27,11.27,0,0,0,3.2,6.271a11.27,11.27,0,0,0,4.2,1.922A41.356,41.356,0,0,0,18.365,9.542,41.356,41.356,0,0,0,29.336,8.193a11.27,11.27,0,0,0,4.2-1.922,11.27,11.27,0,0,0-4.2-1.922A41.356,41.356,0,0,0,18.365,3m0-3C28.508,0,36.73,2.808,36.73,6.271s-8.222,6.271-18.365,6.271S0,9.734,0,6.271,8.222,0,18.365,0Z" transform="translate(0 8.063)"/>
        <ellipse id="Ellisse_8" data-name="Ellisse 8" class="cls-8" cx="18.365" cy="5.823" rx="18.365" ry="5.823" transform="translate(0 4.479)"/>
        <path id="Ellisse_8_-_Contorno" data-name="Ellisse 8 - Contorno" class="cls-9" d="M18.365,3A44.956,44.956,0,0,0,7.49,4.22a13.841,13.841,0,0,0-4.066,1.6,13.841,13.841,0,0,0,4.066,1.6,44.956,44.956,0,0,0,10.875,1.22A44.956,44.956,0,0,0,29.24,7.427a13.841,13.841,0,0,0,4.066-1.6,13.841,13.841,0,0,0-4.066-1.6A44.956,44.956,0,0,0,18.365,3m0-3C28.508,0,36.73,2.607,36.73,5.823s-8.222,5.823-18.365,5.823S0,9.039,0,5.823,8.222,0,18.365,0Z" transform="translate(0 4.479)"/>
        <ellipse id="Ellisse_9" data-name="Ellisse 9" class="cls-8" cx="18.365" cy="5.823" rx="18.365" ry="5.823"/>
        <path id="Ellisse_9_-_Contorno" data-name="Ellisse 9 - Contorno" class="cls-9" d="M18.365,3A44.956,44.956,0,0,0,7.49,4.22a13.841,13.841,0,0,0-4.066,1.6,13.841,13.841,0,0,0,4.066,1.6,44.956,44.956,0,0,0,10.875,1.22A44.956,44.956,0,0,0,29.24,7.427a13.841,13.841,0,0,0,4.066-1.6,13.841,13.841,0,0,0-4.066-1.6A44.956,44.956,0,0,0,18.365,3m0-3C28.508,0,36.73,2.607,36.73,5.823s-8.222,5.823-18.365,5.823S0,9.039,0,5.823,8.222,0,18.365,0Z"/>
      </g>
      <path id="Linea_10" data-name="Linea 10" class="cls-9" d="M1.5,9.854h-3V0h3Z" transform="translate(35.386 5.375)"/>
    </g>
    <path id="Tracciato_357" data-name="Tracciato 357" class="cls-10" d="M33.147,0A33.147,33.147,0,1,1,0,33.147,33.147,33.147,0,0,1,33.147,0Z" transform="translate(559.753 538.91)"/>
    <path id="Tracciato_357_-_Contorno" data-name="Tracciato 357 - Contorno" class="cls-2" d="M33.147-5A38.147,38.147,0,1,1-5,33.147,38.19,38.19,0,0,1,33.147-5Zm0,66.294A28.147,28.147,0,1,0,5,33.147,28.179,28.179,0,0,0,33.147,61.294Z" transform="translate(559.753 538.91)"/>
    <g id="Raggruppa_781" data-name="Raggruppa 781" transform="translate(577.025 556.067)">
      <rect id="Rettangolo_241" data-name="Rettangolo 241" class="cls-2" width="28.86" height="7.689"/>
      <g id="Raggruppa_780" data-name="Raggruppa 780" transform="translate(0 0.001)">
        <g id="Raggruppa_779" data-name="Raggruppa 779" class="cls-11" transform="translate(0 0)">
          <path id="Tracciato_353" data-name="Tracciato 353" class="cls-2" d="M23.889,28.966a10.574,10.574,0,0,1-4.14-.835,10.7,10.7,0,0,1-4.684-3.858,10.662,10.662,0,0,1-.98-10.086A10.691,10.691,0,0,1,17.943,9.5a10.569,10.569,0,0,1,5.945-1.814h3.845V0H23.889a18.328,18.328,0,1,0,0,36.656h3.845V28.966Z" transform="translate(1.137 0)"/>
        </g>
      </g>
    </g>
  </g>
</svg>
